<svg width="100" height="100" viewBox="0 0 100 100" fill="none" xmlns="http://www.w3.org/2000/svg">
<path d="M100 0H0V100H100V0Z" fill="#C4CCD7"/>
<path d="M100 0H0V5H100V0Z" fill="#939AA4"/>
<path d="M0 0L0 100H5L5 0H0Z" fill="#939AA4"/>
<path d="M77.875 80.875H69.75V89H37.25V80.875H29.125V56.5H37.25V48.375H29.125V24H37.25V15.875H69.75V24H77.875V48.375H69.75V56.5H77.875V80.875ZM61.625 48.375V24H45.375V40.25H53.5V48.375H61.625ZM61.625 80.875V64.625H53.5V56.5H45.375V80.875H61.625Z" fill="#EE0000"/>
</svg>
