<svg width="100" height="100" viewBox="0 0 100 100" fill="none" xmlns="http://www.w3.org/2000/svg">
<rect width="100" height="100" fill="#C4CCD7"/>
<rect width="100" height="5" fill="#939AA4"/>
<rect y="100" width="100" height="5" transform="rotate(-90 0 100)" fill="#939AA4"/>
<rect x="10" y="10" width="5" height="5" fill="black"/>
<rect x="15" y="15" width="5" height="5" fill="black"/>
<rect x="85" y="15" width="5" height="5" fill="black"/>
<rect x="90" y="10" width="5" height="5" fill="black"/>
<rect x="85" y="85" width="5" height="5" fill="black"/>
<rect x="90" y="90" width="5" height="5" fill="black"/>
<rect x="10" y="90" width="5" height="5" fill="black"/>
<rect x="15" y="85" width="5" height="5" fill="black"/>
<rect x="50" y="10" width="5" height="5" fill="black"/>
<rect x="65" y="25" width="5" height="5" fill="black"/>
<rect x="50" y="15" width="5" height="5" fill="black"/>
<rect x="50" y="20" width="5" height="5" fill="black"/>
<rect x="70" y="25" width="5" height="5" fill="black"/>
<rect x="60" y="25" width="5" height="5" fill="black"/>
<rect x="50" y="25" width="5" height="5" fill="black"/>
<rect x="55" y="25" width="5" height="5" fill="black"/>
<rect x="45" y="25" width="5" height="5" fill="black"/>
<rect x="40" y="25" width="5" height="5" fill="black"/>
<rect x="35" y="25" width="5" height="5" fill="black"/>
<rect x="40" y="20" width="5" height="5" fill="black"/>
<rect x="30" y="25" width="5" height="5" fill="black"/>
<rect x="45" y="20" width="5" height="5" fill="black"/>
<rect x="55" y="20" width="5" height="5" fill="black"/>
<rect x="60" y="20" width="5" height="5" fill="black"/>
<rect x="95" y="50" width="5" height="5" transform="rotate(90 95 50)" fill="black"/>
<rect x="80" y="65" width="5" height="5" transform="rotate(90 80 65)" fill="black"/>
<rect x="90" y="50" width="5" height="5" transform="rotate(90 90 50)" fill="black"/>
<rect x="85" y="50" width="5" height="5" transform="rotate(90 85 50)" fill="black"/>
<rect x="80" y="70" width="5" height="5" transform="rotate(90 80 70)" fill="black"/>
<rect x="80" y="60" width="5" height="5" transform="rotate(90 80 60)" fill="black"/>
<rect x="80" y="50" width="5" height="5" transform="rotate(90 80 50)" fill="black"/>
<rect x="80" y="55" width="5" height="5" transform="rotate(90 80 55)" fill="black"/>
<rect x="80" y="45" width="5" height="5" transform="rotate(90 80 45)" fill="black"/>
<rect x="80" y="40" width="5" height="5" transform="rotate(90 80 40)" fill="black"/>
<rect x="80" y="35" width="5" height="5" transform="rotate(90 80 35)" fill="black"/>
<rect x="85" y="40" width="5" height="5" transform="rotate(90 85 40)" fill="black"/>
<rect x="80" y="30" width="5" height="5" transform="rotate(90 80 30)" fill="black"/>
<rect x="85" y="45" width="5" height="5" transform="rotate(90 85 45)" fill="black"/>
<rect x="85" y="55" width="5" height="5" transform="rotate(90 85 55)" fill="black"/>
<rect x="85" y="60" width="5" height="5" transform="rotate(90 85 60)" fill="black"/>
<rect x="10" y="55" width="5" height="5" transform="rotate(-90 10 55)" fill="black"/>
<rect x="25" y="40" width="5" height="5" transform="rotate(-90 25 40)" fill="black"/>
<rect x="15" y="55" width="5" height="5" transform="rotate(-90 15 55)" fill="black"/>
<rect x="20" y="55" width="5" height="5" transform="rotate(-90 20 55)" fill="black"/>
<rect x="25" y="35" width="5" height="5" transform="rotate(-90 25 35)" fill="black"/>
<rect x="25" y="45" width="5" height="5" transform="rotate(-90 25 45)" fill="black"/>
<rect x="25" y="55" width="5" height="5" transform="rotate(-90 25 55)" fill="black"/>
<rect x="25" y="50" width="5" height="5" transform="rotate(-90 25 50)" fill="black"/>
<rect x="25" y="60" width="5" height="5" transform="rotate(-90 25 60)" fill="black"/>
<rect x="25" y="65" width="5" height="5" transform="rotate(-90 25 65)" fill="black"/>
<rect x="25" y="70" width="5" height="5" transform="rotate(-90 25 70)" fill="black"/>
<rect x="20" y="65" width="5" height="5" transform="rotate(-90 20 65)" fill="black"/>
<rect x="25" y="75" width="5" height="5" transform="rotate(-90 25 75)" fill="black"/>
<rect x="20" y="60" width="5" height="5" transform="rotate(-90 20 60)" fill="black"/>
<rect x="20" y="50" width="5" height="5" transform="rotate(-90 20 50)" fill="black"/>
<rect x="20" y="45" width="5" height="5" transform="rotate(-90 20 45)" fill="black"/>
<rect x="55" y="90" width="5" height="5" transform="rotate(90 55 90)" fill="black"/>
<rect x="40" y="75" width="5" height="5" transform="rotate(90 40 75)" fill="black"/>
<rect x="55" y="85" width="5" height="5" transform="rotate(90 55 85)" fill="black"/>
<rect x="55" y="80" width="5" height="5" transform="rotate(90 55 80)" fill="black"/>
<rect x="35" y="75" width="5" height="5" transform="rotate(90 35 75)" fill="black"/>
<rect x="45" y="75" width="5" height="5" transform="rotate(90 45 75)" fill="black"/>
<rect x="55" y="75" width="5" height="5" transform="rotate(90 55 75)" fill="black"/>
<rect x="50" y="75" width="5" height="5" transform="rotate(90 50 75)" fill="black"/>
<rect x="60" y="75" width="5" height="5" transform="rotate(90 60 75)" fill="black"/>
<rect x="65" y="75" width="5" height="5" transform="rotate(90 65 75)" fill="black"/>
<rect x="70" y="75" width="5" height="5" transform="rotate(90 70 75)" fill="black"/>
<rect x="65" y="80" width="5" height="5" transform="rotate(90 65 80)" fill="black"/>
<rect x="75" y="75" width="5" height="5" transform="rotate(90 75 75)" fill="black"/>
<rect x="60" y="80" width="5" height="5" transform="rotate(90 60 80)" fill="black"/>
<rect x="50" y="80" width="5" height="5" transform="rotate(90 50 80)" fill="black"/>
<rect x="45" y="80" width="5" height="5" transform="rotate(90 45 80)" fill="black"/>
<rect x="70" y="30" width="5" height="5" fill="black"/>
<rect x="70" y="54" width="5" height="5" fill="black"/>
<rect x="55" y="30" width="5" height="5" fill="black"/>
<rect x="40" y="30" width="5" height="5" fill="black"/>
<rect x="70" y="35" width="5" height="5" fill="black"/>
<rect x="70" y="59" width="5" height="5" fill="black"/>
<rect x="70" y="39" width="5" height="5" fill="black"/>
<rect x="70" y="63" width="5" height="5" fill="black"/>
<rect x="40" y="63" width="5" height="5" fill="black"/>
<rect x="55" y="63" width="5" height="5" fill="black"/>
<rect x="70" y="44" width="5" height="5" fill="black"/>
<rect x="70" y="68" width="5" height="5" fill="black"/>
<rect x="55" y="68" width="5" height="5" fill="black"/>
<rect x="40" y="68" width="5" height="5" fill="black"/>
<rect x="70" y="49" width="5" height="5" fill="black"/>
<rect x="70" y="73" width="5" height="2" fill="black"/>
<rect x="55" y="73" width="5" height="2" fill="black"/>
<rect x="40" y="73" width="5" height="2" fill="black"/>
<rect x="65" y="30" width="5" height="5" fill="black"/>
<rect x="65" y="54" width="5" height="5" fill="black"/>
<rect x="50" y="30" width="5" height="5" fill="black"/>
<rect x="35" y="30" width="5" height="5" fill="black"/>
<rect x="65" y="35" width="5" height="5" fill="black"/>
<rect x="65" y="59" width="5" height="5" fill="black"/>
<rect x="65" y="39" width="5" height="5" fill="black"/>
<rect x="65" y="63" width="5" height="5" fill="black"/>
<rect x="35" y="63" width="5" height="5" fill="black"/>
<rect x="50" y="63" width="5" height="5" fill="black"/>
<rect x="65" y="44" width="5" height="5" fill="black"/>
<rect x="65" y="68" width="5" height="5" fill="black"/>
<rect x="50" y="68" width="5" height="5" fill="black"/>
<rect x="35" y="68" width="5" height="5" fill="black"/>
<rect x="65" y="49" width="5" height="5" fill="black"/>
<rect x="65" y="73" width="5" height="2" fill="black"/>
<rect x="50" y="73" width="5" height="2" fill="black"/>
<rect x="35" y="73" width="5" height="2" fill="black"/>
<rect x="60" y="30" width="5" height="5" fill="black"/>
<rect x="60" y="54" width="5" height="5" fill="black"/>
<rect x="45" y="30" width="5" height="5" fill="black"/>
<rect x="30" y="30" width="5" height="5" fill="black"/>
<rect x="30" y="35" width="5" height="5" fill="black"/>
<rect x="30" y="40" width="5" height="5" fill="black"/>
<rect x="35" y="35" width="5" height="5" fill="black"/>
<rect x="50" y="35" width="5" height="5" fill="black"/>
<rect x="55" y="35" width="5" height="5" fill="black"/>
<rect x="55" y="40" width="5" height="5" fill="black"/>
<rect x="55" y="50" width="5" height="5" fill="black"/>
<rect x="55" y="55" width="5" height="5" fill="black"/>
<rect x="50" y="55" width="5" height="5" fill="black"/>
<rect x="35" y="55" width="5" height="5" fill="black"/>
<rect x="30" y="55" width="5" height="5" fill="black"/>
<rect x="30" y="60" width="5" height="3" fill="black"/>
<rect x="35" y="60" width="5" height="3" fill="black"/>
<rect x="40" y="60" width="5" height="3" fill="black"/>
<rect x="45" y="60" width="5" height="3" fill="black"/>
<rect x="50" y="60" width="5" height="3" fill="black"/>
<rect x="55" y="60" width="5" height="3" fill="black"/>
<rect x="30" y="50" width="5" height="5" fill="black"/>
<rect x="60" y="35" width="5" height="5" fill="black"/>
<rect x="60" y="59" width="5" height="5" fill="black"/>
<rect x="60" y="39" width="5" height="5" fill="black"/>
<rect x="60" y="63" width="5" height="5" fill="black"/>
<rect x="30" y="63" width="5" height="5" fill="black"/>
<rect x="45" y="63" width="5" height="5" fill="black"/>
<rect x="60" y="44" width="5" height="5" fill="black"/>
<rect x="60" y="68" width="5" height="5" fill="black"/>
<rect x="45" y="68" width="5" height="5" fill="black"/>
<rect x="30" y="68" width="5" height="5" fill="black"/>
<rect x="60" y="49" width="5" height="5" fill="black"/>
<rect x="60" y="73" width="5" height="2" fill="black"/>
<rect x="45" y="73" width="5" height="2" fill="black"/>
<rect x="30" y="73" width="5" height="2" fill="black"/>
<rect x="45" y="35" width="5" height="5" fill="white"/>
<rect x="45" y="55" width="5" height="5" fill="white"/>
<rect x="50" y="50" width="5" height="5" fill="white"/>
<rect x="40" y="50" width="5" height="5" fill="white"/>
<rect x="35" y="45" width="5" height="5" fill="white"/>
<rect x="45" y="45" width="5" height="5" fill="white"/>
<rect x="55" y="45" width="5" height="5" fill="white"/>
<rect x="50" y="40" width="5" height="5" fill="white"/>
<rect x="40" y="40" width="5" height="5" fill="white"/>
<rect x="40" y="35" width="5" height="5" fill="white"/>
<rect x="40" y="55" width="5" height="5" fill="white"/>
<rect x="45" y="50" width="5" height="5" fill="white"/>
<rect x="35" y="50" width="5" height="5" fill="white"/>
<rect x="30" y="45" width="5" height="5" fill="white"/>
<rect x="40" y="45" width="5" height="5" fill="white"/>
<rect x="50" y="45" width="5" height="5" fill="white"/>
<rect x="45" y="40" width="5" height="5" fill="white"/>
<rect x="35" y="40" width="5" height="5" fill="white"/>
</svg>
